<?xml version="1.0" encoding="UTF-8"?>
<svg id="Camada_1" data-name="Camada 1" xmlns="http://www.w3.org/2000/svg" viewBox="0 0 783.54 141.73">
  <defs>
    <style>
      .cls-1 {
        fill: #ec631b;
      }

      .cls-2 {
        fill: #fff;
      }
    </style>
  </defs>
  <path class="cls-2" d="M639.87,85.33c0-5.14,4.21-9.35,9.35-9.35h9.3c1.73,0,3.32-.96,4.13-2.48l4.13-7.76h-26.91v-17.27c0-2.58,2.09-4.67,4.68-4.67h26.29c1.8,0,3.44-1.03,4.21-2.65l4.36-9.05h-48.02c-2.58,0-4.68,2.09-4.68,4.67v68.2c0,2.57,2.1,4.67,4.68,4.67h39.75c1.8,0,3.43-1.03,4.21-2.64l4.38-9.06h-39.84v-12.6Z"/>
  <path class="cls-2" d="M221.73,85.33c0-5.14,4.21-9.35,9.35-9.35h9.3c1.73,0,3.32-.96,4.13-2.48l4.12-7.76h-26.9v-17.27c0-2.58,2.09-4.67,4.67-4.67h26.29c1.8,0,3.44-1.03,4.21-2.65l4.35-9.05h-48.03c-2.58,0-4.67,2.09-4.67,4.67v68.2c0,2.57,2.1,4.67,4.67,4.67h39.75c1.79,0,3.43-1.03,4.21-2.64l4.38-9.06h-39.84v-12.6Z"/>
  <path class="cls-2" d="M103.94,43.94h23.38v65.69h14.43V43.94h17.71c1.86,0,3.54-1.09,4.29-2.79l4.03-9.06h-63.84v11.85Z"/>
  <path class="cls-2" d="M375.03,32.14c-.47.04-.88.13-1.26.27-.38.14-.73.38-1.05.7-.32.32-.63.75-.91,1.29l-22.9,42.96c-.61,1.15-1.18,2.33-1.71,3.57-.54,1.23-1.05,2.51-1.56,3.83-.5-1.25-1.01-2.49-1.53-3.73-.52-1.23-1.08-2.42-1.69-3.57l-23.22-43.06c-.29-.54-.58-.96-.88-1.29-.31-.32-.65-.55-1.02-.7-.38-.14-.8-.23-1.26-.27-.46-.03-1.02-.05-1.66-.05h-10.88v77.55h12.71v-50.09c0-.97-.04-2.01-.11-3.14-.07-1.13-.16-2.28-.27-3.46l23.71,44.13c1.11,2.11,2.8,3.17,5.09,3.17h2.04c2.29,0,3.99-1.06,5.1-3.17l23.44-43.97c-.11,1.15-.19,2.27-.24,3.38-.05,1.11-.08,2.13-.08,3.06v50.09h12.71V32.09h-10.89c-.64,0-1.2.02-1.66.05Z"/>
  <path class="cls-2" d="M486.14,39.01c-2.46-2.18-5.6-3.88-9.39-5.09-3.79-1.22-8.28-1.82-13.46-1.82h-25.2v77.55h14.42v-27.3h10.78c5.04,0,9.45-.62,13.22-1.88,3.77-1.25,6.91-3,9.41-5.26,2.5-2.25,4.38-4.94,5.63-8.07,1.25-3.13,1.88-6.57,1.88-10.33s-.6-6.93-1.8-9.97c-1.2-3.04-3.03-5.65-5.5-7.83ZM478.05,62.74c-.64,1.77-1.62,3.27-2.92,4.51-1.31,1.23-2.94,2.18-4.91,2.84-1.97.66-4.27.99-6.92.99h-10.78v-27.83h10.78c2.68,0,5,.31,6.97.94,1.97.62,3.59,1.53,4.88,2.71,1.29,1.18,2.25,2.61,2.89,4.29.64,1.68.96,3.56.96,5.63,0,2.18-.32,4.16-.96,5.93Z"/>
  <path class="cls-2" d="M552.16,32.09h-14.43v77.55h40.8c1.81,0,3.45-1.04,4.23-2.67l4.43-9.24h-35.04V32.09Z"/>
  <path class="cls-1" d="M758.37,0c18.42,45.67,17.57,96.4-1.11,141.73h26.34V0h-25.23Z"/>
  <path class="cls-1" d="M.05,0v141.73h25.23C6.86,96.05,7.71,45.32,26.39,0H.05Z"/>
</svg>